<svg width="431" height="775" viewBox="0 0 431 775" fill="none" xmlns="http://www.w3.org/2000/svg">
  <!-- Large Concentric Isometric Cubes (in background) -->
  <rect width="375.668" height="375.668" transform="matrix(0.866025 0.5 -0.866025 0.5 375.34 22.9108)" fill="url(#paint0_linear_921_6071)" stroke="#105e49" stroke-width="2"/>
  <rect width="375.668" height="375.668" transform="matrix(0.866025 0.5 0 1 50 210.745)" fill="url(#paint1_linear_921_6071)" stroke="#105e49" stroke-width="2"/>
  <rect width="375.668" height="375.668" transform="matrix(0.866025 -0.5 0 1 375.34 398.579)" stroke="#105e49" stroke-width="2"/>
  
  <rect width="300.357" height="300.357" transform="matrix(0.866025 0.5 -0.866025 0.5 375.34 98.2216)" stroke="#167e65" stroke-width="1.5"/>
  <rect width="300.357" height="300.357" transform="matrix(0.866025 0.5 0 1 115.221 248.4)" stroke="#167e65" stroke-width="1.5"/>
  <rect width="300.357" height="300.357" transform="matrix(0.866025 -0.5 0 1 375.34 398.579)" stroke="#167e65" stroke-width="1.5"/>
  
  <rect width="227.214" height="227.214" transform="matrix(0.866025 0.5 -0.866025 0.5 375.339 171.365)" stroke="#1a9e7a" stroke-width="1.5"/>
  <rect width="227.214" height="227.214" transform="matrix(0.866025 0.5 0 1 178.566 284.972)" stroke="#1a9e7a" stroke-width="1.5"/>
  <rect width="227.214" height="227.214" transform="matrix(0.866025 -0.5 0 1 375.339 398.579)" stroke="#1a9e7a" stroke-width="1.5"/>
  
  <rect width="159.01" height="159.01" transform="matrix(0.866025 0.5 -0.866025 0.5 375.339 239.569)" stroke="#2ec4a0"/>
  <rect width="159.01" height="159.01" transform="matrix(0.866025 0.5 0 1 237.632 319.074)" stroke="#2ec4a0"/>
  <rect width="159.01" height="159.01" transform="matrix(0.866025 -0.5 0 1 375.339 398.579)" stroke="#2ec4a0"/>
  
  <!-- Central solid cube -->
  <rect width="94.294" height="94.294" transform="matrix(0.866025 0.5 -0.866025 0.5 375.339 304.285)" fill="#167e65" stroke="#ea8d22" stroke-width="1.5"/>
  <rect width="94.294" height="94.294" transform="matrix(0.866025 0.5 0 1 293.678 351.432)" fill="#0a3d2d" stroke="#ea8d22" stroke-width="1.5"/>
  <rect width="94.294" height="94.294" transform="matrix(0.866025 -0.5 0 1 375.339 398.579)" fill="#105e49" stroke="#ea8d22" stroke-width="1.5"/>

  <!-- MAGASIN (Shop storefront) at the top -->
  <g transform="translate(111, 10) scale(1.6)">
    <!-- Roof / Awning (Orange/Gold stripes) -->
    <path d="M 20 20 L 120 20 L 135 40 L 5 40 Z" fill="#ea8d22" />
    <path d="M 23 20 L 39 20 L 32 40 L 16 40 Z" fill="#ffffff" opacity="0.35"/>
    <path d="M 60 20 L 76 20 L 71 40 L 55 40 Z" fill="#ffffff" opacity="0.35"/>
    <path d="M 97 20 L 113 20 L 110 40 L 94 40 Z" fill="#ffffff" opacity="0.35"/>
    <path d="M 20 20 L 120 20 L 135 40 L 5 40 Z" fill="none" stroke="#d97706" stroke-width="2"/>
    
    <!-- Store Building interior -->
    <rect x="15" y="40" width="110" height="60" rx="3" fill="#031611" stroke="#167e65" stroke-width="2.5"/>
    
    <!-- Store window showing items/stock -->
    <rect x="25" y="50" width="40" height="35" rx="2" fill="none" stroke="#1a9e7a" stroke-width="1.5"/>
    <line x1="27" y1="67" x2="63" y2="67" stroke="#1a9e7a" stroke-width="1"/>
    <rect x="30" y="54" width="8" height="11" rx="1" fill="#ea8d22" opacity="0.95"/>
    <rect x="45" y="56" width="12" height="9" rx="1" fill="#f59e0b" opacity="0.95"/>
    
    <!-- Door -->
    <rect x="75" y="50" width="35" height="48" rx="2" fill="none" stroke="#1a9e7a" stroke-width="1.5"/>
    <rect x="80" y="58" width="10" height="40" rx="1" fill="#167e65"/>
    <circle cx="83" cy="78" r="1.5" fill="#ea8d22"/>
  </g>

  <!-- STOCK (Isometric packages stack) at the bottom-left -->
  <g transform="translate(10, 560) scale(1.6)">
    <!-- Top Box (Box C) -->
    <!-- Top Face -->
    <path d="M 55 20 L 75 30 L 55 40 L 35 30 Z" fill="#f59e0b" stroke="#ea8d22" stroke-width="1.5"/>
    <!-- Tape Seam -->
    <line x1="35" y1="30" x2="75" y2="30" stroke="#d97706" stroke-width="2" opacity="0.8"/>
    <!-- Left Face -->
    <path d="M 35 30 L 55 40 L 55 60 L 35 50 Z" fill="#105e49" stroke="#0a3d2d" stroke-width="1.5"/>
    <!-- Right Face -->
    <path d="M 55 40 L 75 30 L 75 50 L 55 60 Z" fill="#167e65" stroke="#105e49" stroke-width="1.5"/>

    <!-- Bottom-Left Box (Box A) -->
    <!-- Top Face -->
    <path d="M 35 48 L 55 58 L 35 68 L 15 58 Z" fill="#f59e0b" stroke="#ea8d22" stroke-width="1.5"/>
    <!-- Tape Seam -->
    <line x1="15" y1="58" x2="55" y2="58" stroke="#d97706" stroke-width="2" opacity="0.8"/>
    <!-- Left Face -->
    <path d="M 15 58 L 35 68 L 35 88 L 15 78 Z" fill="#105e49" stroke="#0a3d2d" stroke-width="1.5"/>
    <!-- Right Face -->
    <path d="M 35 68 L 55 58 L 55 78 L 35 88 Z" fill="#167e65" stroke="#105e49" stroke-width="1.5"/>

    <!-- Bottom-Right Box (Box B) -->
    <!-- Top Face -->
    <path d="M 55 58 L 75 48 L 95 58 L 75 68 Z" fill="#fcd34d" stroke="#f59e0b" stroke-width="1.5"/>
    <!-- Tape Seam -->
    <line x1="55" y1="58" x2="95" y2="58" stroke="#d97706" stroke-width="2" opacity="0.8"/>
    <!-- Right Face -->
    <path d="M 75 68 L 95 58 L 95 78 L 75 88 Z" fill="#167e65" stroke="#105e49" stroke-width="1.5"/>
  </g>

  <!-- CHIFFRE D'AFFAIRES (Isometric growth chart / turnover) at the bottom-right -->
  <g transform="translate(250, 565) scale(1.6)">
    <!-- Bar 1 (Short) -->
    <!-- Top Face -->
    <path d="M 28 55 L 38 60 L 28 65 L 18 60 Z" fill="#f59e0b" stroke="#ea8d22" stroke-width="1"/>
    <!-- Left Face -->
    <path d="M 18 60 L 28 65 L 28 80 L 18 75 Z" fill="#ea8d22" stroke="#d97706" stroke-width="1"/>
    <!-- Right Face -->
    <path d="M 28 65 L 38 60 L 38 75 L 28 80 Z" fill="#d97706" stroke="#b45309" stroke-width="1"/>

    <!-- Bar 2 (Medium) -->
    <!-- Top Face -->
    <path d="M 48 40 L 58 45 L 48 50 L 38 45 Z" fill="#f59e0b" stroke="#ea8d22" stroke-width="1"/>
    <!-- Left Face -->
    <path d="M 38 45 L 48 50 L 48 80 L 38 75 Z" fill="#ea8d22" stroke="#d97706" stroke-width="1"/>
    <!-- Right Face -->
    <path d="M 48 50 L 58 45 L 58 75 L 48 80 Z" fill="#d97706" stroke="#b45309" stroke-width="1"/>

    <!-- Bar 3 (Tall) -->
    <!-- Top Face -->
    <path d="M 68 25 L 78 30 L 68 35 L 58 30 Z" fill="#fcd34d" stroke="#f59e0b" stroke-width="1"/>
    <!-- Left Face -->
    <path d="M 58 30 L 68 35 L 68 80 L 58 75 Z" fill="#f59e0b" stroke="#ea8d22" stroke-width="1"/>
    <!-- Right Face -->
    <path d="M 68 35 L 78 30 L 78 75 L 68 80 Z" fill="#ea8d22" stroke="#d97706" stroke-width="1"/>

    <!-- Growth Arrow -->
    <path d="M 15 65 Q 40 45 74 19" fill="none" stroke="#167e65" stroke-width="2.5" stroke-linecap="round" stroke-linejoin="round"/>
    <polygon points="69,18 76,17 74,24" fill="#167e65"/>
  </g>

  <defs>
    <linearGradient id="paint0_linear_921_6071" x1="-0.215805" y1="0.0726477" x2="375.488" y2="375.777" gradientUnits="userSpaceOnUse">
      <stop stop-color="#020d0a"/>
      <stop offset="0.99696" stop-color="#052c22"/>
    </linearGradient>
    <linearGradient id="paint1_linear_921_6071" x1="187.834" y1="0" x2="187.834" y2="375.668" gradientUnits="userSpaceOnUse">
      <stop stop-color="#052c22"/>
      <stop offset="1" stop-color="#105e49"/>
    </linearGradient>
  </defs>
</svg>